# Blender 4.5.3 LTS
# www.blender.org
o Suzanne
v -0.174390 0.421970 0.207866
v 0.174390 0.421970 0.207866
v 0.037407 0.472301 0.230683
v -0.036373 0.471979 0.231278
v 0.141894 0.551074 0.284637
v 0.056295 0.572334 0.233623
v -0.100342 0.581491 0.215686
v -0.141628 0.550842 0.284993
v 0.167484 0.563714 0.196128
v -0.200480 0.528533 0.191022
v 0.228194 0.501936 0.204114
v -0.114910 0.455895 0.291659
v 0.115483 0.455915 0.291363
v 0.000000 0.347155 0.287103
v 0.058314 0.568050 -0.319302
v 0.062895 0.285354 -0.151710
v -0.128524 0.080373 0.206634
v 0.090048 0.333698 0.218573
v 0.288759 0.559374 0.227688
v -0.100271 0.559993 0.274396
v 0.088987 0.616785 0.284793
v 0.000000 0.344341 0.270214
v 0.000000 0.364044 0.267399
v -0.212757 0.393646 0.209904
v -0.294232 0.555218 0.230372
v -0.089729 0.686371 0.275082
v -0.001610 0.548659 0.291726
v -0.032896 0.372103 0.285486
v 0.041571 0.351823 0.281054
v -0.036676 0.310683 0.277459
v 0.034203 0.128546 0.253262
v -0.029120 0.111995 0.251582
v -0.148788 0.554691 0.271127
v -0.199271 0.508718 0.249900
v -0.149160 0.446353 0.259016
v 0.071391 0.524271 0.273950
v -0.070641 0.520857 0.274210
v 0.116882 0.555400 0.290687
v 0.080305 0.462393 0.272599
v 0.149349 0.439637 0.251227
v 0.201979 0.504731 0.244075
v -0.079114 0.461950 0.271583
v -0.000898 0.569963 0.227785
v 0.090298 0.692911 0.252817
v -0.259760 0.570296 0.130077
v -0.288604 0.444499 0.125802
v -0.085666 0.336242 0.182823
v 0.284573 0.453550 0.144305
v -0.124358 0.762259 0.066397
v -0.004186 0.387630 -0.280792
v -0.304267 0.559866 -0.164151
v -0.077120 0.266909 0.123185
v -0.103322 0.072910 0.144412
v 0.133062 0.059857 0.183748
v 0.060948 0.253363 0.106099
v 0.067375 0.750417 -0.179744
v -0.258910 0.664849 -0.137208
v 0.167752 0.739320 0.054842
v 0.258573 0.572238 0.130696
v 0.312767 0.586977 -0.132006
v -0.148509 0.358793 -0.169377
v 0.243863 0.386106 -0.048437
v -0.428175 0.426132 -0.160321
v 0.310379 0.538972 -0.069205
v 0.295851 0.430671 -0.115358
v -0.421225 0.569466 -0.143155
v -0.354310 0.523400 -0.127705
v -0.299068 0.431089 -0.115803
v -0.255402 0.389083 -0.050182
v -0.306679 0.545708 -0.069131
v 0.414314 0.546007 -0.153407
v -0.470347 0.582797 -0.182088
v 0.465230 0.582803 -0.168354
v 0.428098 0.422455 -0.166145
v -0.278027 0.371250 -0.116533
v 0.250929 0.392386 -0.135003
vn 0.6385 -0.1235 0.7597
vn -0.8113 -0.1895 0.5531
vn -0.5709 0.2145 0.7925
vn 0.5671 0.2154 0.7950
vn 0.6537 0.4667 0.5958
vn -0.4838 0.8699 0.0965
vn 0.6635 0.6896 0.2903
vn -0.2884 -0.8481 0.4445
vn 0.4781 -0.5552 0.6806
vn -0.2178 0.3811 0.8985
vn 0.1866 -0.1493 0.9710
vn -0.1720 0.0090 0.9851
vn -0.2216 0.0132 0.9750
vn 0.2462 -0.1020 0.9638
vn -0.3218 -0.2770 0.9054
vn 0.7417 -0.2111 0.6367
vn -0.0066 0.0785 0.9969
vn -0.0114 -0.8058 0.5921
vn 0.5124 -0.1227 0.8499
vn -0.3727 -0.1338 0.9183
vn -1.0000 -0.0000 -0.0000
vn 0.4777 0.6670 0.5717
vn -0.3831 -0.3461 0.8564
vn 0.5153 0.3837 0.7663
vn 0.7243 -0.5382 0.4309
vn -0.4584 -0.2434 0.8548
vn 0.0176 0.4031 -0.9150
vn -0.3136 -0.0515 0.9482
vn -0.8073 0.5625 0.1784
vn 0.8162 0.5453 0.1908
vn 0.5518 0.8317 -0.0614
vn 0.9463 0.1762 -0.2711
vn 0.1378 -0.3242 -0.9359
vn -0.1310 -0.0903 -0.9873
vn -0.9202 0.0824 -0.3826
vn -0.2765 0.9252 -0.2599
vn 0.8202 0.5363 0.1993
vn -0.7637 0.6094 0.2131
vn -0.3224 0.4126 -0.8520
vn 0.2967 0.5450 -0.7842
vn 0.9514 0.2260 0.2090
vn -0.8837 0.4421 0.1536
vn 0.5272 -0.8437 -0.1007
vn 0.5920 -0.1760 -0.7865
vn -0.3857 -0.2759 -0.8804
vn -0.5164 -0.3801 -0.7673
vn 0.3218 -0.0615 0.9448
vn 0.3026 0.6680 0.6799
vn 0.5612 -0.5125 0.6499
vn 0.9132 -0.4043 -0.0514
vn -0.8718 -0.2333 0.4308
vn -0.5589 -0.3443 0.7544
vn -0.9447 -0.3187 -0.0779
vn 0.5975 -0.3809 0.7057
vn 0.3549 -0.0566 0.9332
vn -0.3227 -0.0714 0.9438
vn 0.1194 0.9816 0.1493
vn 0.2575 -0.0646 -0.9641
vn 0.6570 -0.4124 0.6311
vn -0.7922 -0.0987 0.6023
vn -0.3176 -0.9353 0.1561
vn 0.3127 -0.9367 0.1572
vn -0.4981 0.0686 0.8644
vn 0.1357 0.9746 0.1784
vn 0.7959 0.0483 0.6035
vn -0.8505 0.1882 0.4911
vn 0.5507 -0.4639 0.6939
vn -0.7815 -0.4490 0.4333
vn 0.3502 0.3576 0.8657
vn -0.2202 -0.0404 0.9746
vn -0.3928 -0.0601 0.9177
vn -0.1874 -0.1465 0.9713
vn 0.0145 -0.1262 0.9919
vn -0.2428 -0.0083 0.9700
vn 0.1362 -0.6010 0.7876
vn -0.2371 -0.9538 -0.1848
vn 0.0094 0.7592 0.6508
vn -0.1167 -0.2167 -0.9692
vn 0.0233 -0.1310 0.9911
vn -0.8886 -0.0052 0.4586
vn 0.1605 -0.3717 0.9144
vn 0.0274 -0.6990 0.7146
vn 0.5999 0.3420 0.7233
vn -0.5304 0.8459 -0.0551
vn -0.9316 0.2234 -0.2866
vn -0.4330 -0.8893 -0.1472
vn -0.0700 -0.9934 0.0908
vn 0.9090 0.1900 -0.3709
vn -0.9481 0.1319 -0.2892
vn 0.0538 -0.1672 0.9845
vn 0.4043 -0.6029 -0.6878
vn -0.2404 -0.8177 -0.5230
vn -0.3002 0.5202 -0.7996
vn 0.4718 -0.3373 -0.8146
vn -0.3915 -0.0603 -0.9182
vn 0.0788 0.9968 0.0134
vn 0.1747 0.6129 0.7706
vn 0.4821 0.5172 -0.7072
vn 0.5699 0.7954 -0.2062
vn -0.3937 -0.9158 0.0791
vn -0.3077 0.4880 0.8168
vn 0.9503 0.2320 0.2077
vn -0.9566 0.2126 0.1991
vn -0.9206 0.3889 0.0346
vn -0.9557 -0.2507 0.1545
vn 0.6303 -0.7455 0.2168
vn -0.2047 0.0592 -0.9770
vn 0.0114 -0.9666 0.2559
vn 0.4961 -0.8680 -0.0225
vn -0.6302 -0.0621 0.7739
vn 0.8397 -0.3043 0.4497
vn 0.2349 0.0153 -0.9719
vn -0.2466 0.7334 0.6335
vn -0.2887 -0.1000 0.9522
vn 0.1570 -0.9859 -0.0587
vn -0.4117 -0.8351 0.3648
vn -0.0686 0.9141 0.3996
vn 0.1651 0.7805 0.6029
vn 0.0723 -0.2347 -0.9694
s 0
f 5//1 13//1 11//1
f 12//2 8//2 10//2
f 13//3 5//3 3//3
f 8//4 12//4 4//4
f 8//5 4//5 7//5
f 8//6 7//6 10//6
f 11//7 9//7 5//7
f 24//8 47//8 28//8
f 19//9 41//9 48//9
f 27//10 21//10 44//10
f 21//11 27//11 36//11
f 20//12 27//12 26//12
f 25//13 20//13 26//13
f 19//14 21//14 41//14
f 24//15 34//15 25//15
f 29//16 18//16 39//16
f 39//17 42//17 29//17
f 54//18 32//18 17//18
f 29//19 31//19 54//19
f 32//20 30//20 17//20
f 14//21 23//21 22//21
f 14//22 23//22 28//22
f 23//23 29//23 42//23
f 28//24 23//24 42//24
f 18//25 41//25 40//25
f 34//26 24//26 35//26
f 20//27 34//27 33//27
f 36//28 38//28 21//28
f 27//29 44//29 43//29
f 26//30 27//30 43//30
f 19//31 59//31 44//31
f 48//32 59//32 19//32
f 55//33 54//33 53//33
f 55//34 53//34 52//34
f 53//35 17//35 52//35
f 57//36 49//36 56//36
f 58//37 59//37 60//37
f 45//38 49//38 57//38
f 43//39 44//39 59//39
f 26//40 43//40 45//40
f 64//41 60//41 59//41
f 57//42 70//42 45//42
f 16//43 62//43 55//43
f 76//44 15//44 60//44
f 75//45 51//45 61//45
f 51//46 50//46 61//46
f 71//47 74//47 73//47
f 74//48 65//48 62//48
f 71//49 73//49 64//49
f 48//50 62//50 64//50
f 70//51 68//51 69//51
f 70//52 66//52 68//52
f 46//53 70//53 69//53
f 65//54 71//54 64//54
f 74//55 71//55 65//55
f 67//56 63//56 68//56
f 70//57 51//57 72//57
f 63//58 72//58 75//58
f 11//59 13//59 2//59
f 1//60 12//60 10//60
f 2//61 13//61 3//61
f 4//62 12//62 1//62
f 5//63 6//63 3//63
f 5//64 9//64 6//64
f 18//65 29//65 54//65
f 17//66 30//66 47//66
f 18//67 48//67 41//67
f 25//68 46//68 24//68
f 44//69 21//69 19//69
f 25//70 34//70 20//70
f 28//71 42//71 24//71
f 27//72 20//72 37//72
f 32//73 31//73 29//73 30//73
f 42//74 27//74 37//74
f 31//75 32//75 54//75
f 16//76 55//76 52//76 61//76
f 14//77 29//77 23//77
f 28//78 29//78 14//78
f 30//79 29//79 28//79
f 30//80 28//80 47//80
f 39//81 18//81 40//81
f 35//82 24//82 42//82
f 21//83 38//83 41//83
f 25//84 26//84 45//84
f 46//85 25//85 45//85
f 47//86 24//86 46//86
f 53//87 54//87 17//87
f 18//88 54//88 55//88
f 52//89 17//89 47//89
f 42//90 39//90 36//90 27//90
f 76//91 16//91 50//91
f 61//92 50//92 16//92
f 56//93 15//93 51//93 57//93
f 15//94 76//94 50//94
f 51//95 15//95 50//95
f 49//96 58//96 56//96
f 49//97 43//97 59//97 58//97
f 15//98 56//98 60//98
f 56//99 58//99 60//99
f 69//100 61//100 47//100 46//100
f 45//101 43//101 49//101
f 48//102 64//102 59//102
f 45//103 70//103 46//103
f 57//104 51//104 70//104
f 61//105 52//105 47//105
f 55//106 62//106 48//106 18//106
f 60//107 73//107 74//107 76//107
f 61//108 69//108 75//108
f 16//109 76//109 62//109
f 66//110 72//110 63//110
f 64//111 62//111 65//111
f 68//112 66//112 67//112
f 63//113 69//113 68//113
f 67//114 66//114 63//114
f 74//115 62//115 76//115
f 75//116 69//116 63//116
f 66//117 70//117 72//117
f 64//118 73//118 60//118
f 75//119 72//119 51//119
